<?xml version="1.0" encoding="utf-8"?>
<!-- Generator: Adobe Illustrator 28.3.0, SVG Export Plug-In . SVG Version: 6.00 Build 0)  -->
<svg version="1.1" id="Layer_1" xmlns="http://www.w3.org/2000/svg" xmlns:xlink="http://www.w3.org/1999/xlink" x="0px" y="0px"
	 viewBox="0 0 250 192.0759" style="enable-background:new 0 0 250 192.0759;" xml:space="preserve">
<g id="path-01">
	<path d="M246.12587,131.45631c-3.00027-4.5004-7.40067-7.20065-12.40111-8.9008c-5.10046-1.70015-10.40094-3.3003-14.90135-6.20055
		c-3.90034-2.50023-7.20064-5.80053-9.80089-9.60087c-2.70024-8.8008-2.90025-18.40166,0-27.30247
		c0.20003-0.50005,0.30003-1.20011-0.10001-1.60014c6.6006,0.60005,13.20119-0.20002,19.50175-2.70024
		c3.4003-1.40013,6.6006-3.10028,9.50087-5.40049c2.3002-1.80017,7.10065-5.30048,5.60051-8.8008
		c-0.10002-0.20002-0.20001-0.40004-0.50005-0.40004c-5.40048-0.10001-10.80098-1.80016-15.80144-3.80034
		c-4.10037-1.60014-8.20073-3.20029-12.30112-4.90044c-4.20036-1.70015-8.40074-3.70033-12.40111-6.00054
		c-3.60033-10.80098-9.60088-20.70187-17.60159-28.90261c-8.60078-8.80079-19.10173-15.5014-31.60286-16.70151
		c-6.30058-0.50004-12.70116-0.20001-19.10175,0.60006c-6.20055,0.70006-12.30111,2.10019-18.20164,4.00036
		c-11.40103,3.60032-22.10199,9.40085-31.10281,17.20155c-4.4004,3.80034-8.40076,8.10073-12.00108,12.80116
		c-9.40085,8.60078-21.60195,14.60132-34.10308,16.80152c-1.50013,0.30003-3.00027,0.50004-4.60041,0.70006
		s-3.10028,0.20002-4.70042,0.40004c-2.80025,0.50004-5.30048,2.50023-5.30048,5.6005c0,3.10028,2.40022,5.70052,4.80043,7.50068
		c2.60023,1.90018,5.70052,3.20029,8.80079,4.30039c6.50059,2.40022,14.30129,3.50032,20.10182-0.70006
		c-0.90009,4.30039-1.70016,8.70078-2.50023,13.10118c-1.70015,9.70087-3.40031,19.70179-7.50068,28.7026
		c-0.10001,0.10001-0.30003,0.20002-0.50005,0.40004l0,0c-7.40067,9.30084-20.40184,7.8007-30.60277,11.40103
		c-8.9008,3.30029-17.00154,11.60104-16.80152,21.90195c0.10001,5.10046,2.2002,10.0009,6.20056,13.20119
		c-1.30012,4.00037-1.60014,8.40076,0,12.50113c4.10037,11.20102,16.20147,15.5014,27.10245,16.5015
		c3.10028,0.30003,6.20056,0.40002,9.30084,0.40002c1.1001,0,1.90017-1.2001,2.00018-2.10019
		c1.00009-5.80052-4.50041-8.70079-6.30057-13.50122c-1.80016-4.60042-0.20002-10.0009,3.50032-13.20119
		c4.20038-3.70033,10.20092-4.70042,15.60141-4.3004c4.90044,0.40004,10.40094,1.90018,13.40121,6.00055
		c3.3003,4.50041,1.90018,10.30093-1.1001,14.50131c-1.70015,2.40021-4.4004,4.40039-5.00045,7.40067
		c-0.50005,2.70024,0.90008,4.70041,3.40031,5.60051c2.90026,1.2001,6.30058,1.70015,9.30084,2.3002
		c3.40031,0.70007,6.80062,1.30013,10.20092,1.60016c5.90054,0.50005,11.90108-0.20001,17.40157-2.50023
		c5.30048-2.30022,9.40085-6.10056,12.40112-11.00099c2.80025-4.60042,4.60041-10.10092,8.9008-13.60124
		c3.90036-3.10028,9.40085-4.10037,14.30128-3.00026c4.60043,1.00009,10.60097,4.90044,9.30084,10.40092
		c-0.60005,2.50023-2.3002,4.60042-3.90034,6.5006c-1.70015,2.2002-4.40039,4.70042-4.70041,7.60069
		c-0.20003,2.70024,2.2002,4.00035,4.40039,4.60042c2.40021,0.70006,5.00044,1.1001,7.50067,1.2001
		c10.10092,0.30003,20.20183-4.20038,26.70241-11.90106c3.30031-3.90034,5.30049-8.50078,7.50069-13.00117
		c2.00017-4.10039,4.30038-8.40076,8.60077-10.60097c4.60043-2.30022,10.20093-1.00009,14.20129,1.80017
		c4.60042,3.20027,7.00063,8.60077,7.50067,14.00125c0.30003,2.80026,0,5.5005-0.50005,8.30077
		c-0.10002,0.60005,0,1.30011,0.70006,1.50012c9.20084,2.1002,18.8017-2.2002,23.80215-10.0009
		c2.1002-3.30029,3.30031-7.00063,3.60033-10.80098C250.72627,152.25819,252.0264,140.35713,246.12587,131.45631z
		 M214.22298,117.05502c3.90034,3.40031,8.20074,5.5005,13.20119,6.7006c5.20047,1.30013,10.50096,2.30021,14.60133,6.10056
		c3.60033,3.4003,5.80052,8.20073,6.40057,13.10118c0.60005,5.5005-0.70006,10.60097-2.90025,15.5014
		c0-0.40002,0-0.70006-0.10002-1.1001c0.20001-0.40004,0.40002-0.90009,0.50005-1.30013
		c0.40002-0.90007,0.70006-1.90016,0.90007-2.90025c0.50005-2.00018,0.80008-4.10039,0.80008-6.10056
		c0.10002-4.10039-0.80008-8.10074-2.70024-11.70107c-0.10002-0.20001-0.50005,0.30003-0.40002,0.50005l0,0
		c1.60014,3.60034,2.40021,7.60069,2.40021,11.50104c0,2.00018-0.30003,3.90034-0.70006,5.80054
		c-0.20001,1.00009-0.50005,1.90016-0.90009,2.80025c0,0.10002,0,0.10002-0.10001,0.20001
		c-0.20001-1.1001-0.40004-2.10019-0.70006-3.10028c1.2001-3.70033,1.40012-7.90071,0.50005-11.70105
		c-0.10002-0.30003-0.50005,0.20001-0.40004,0.40002l0,0c0.30003,2.00018,0.40004,4.10037,0.30003,6.10056
		c-0.10002,1.40013-0.40002,2.70024-0.70006,4.10039c-0.40002-1.10011-0.80008-2.2002-1.40012-3.30031
		c0-0.10002,0.10001-0.20001,0.10001-0.30003c0.20001-0.60005,0.30003-1.2001,0.40004-1.80016
		c0.20001-1.2001,0.20001-2.30022,0-3.50032c0-0.10002-0.20003-0.10002-0.20003-0.10002
		c-0.10001,0.10002-0.20001,0.20001-0.20001,0.40004c0,1.1001-0.10001,2.3002-0.30003,3.4003
		c-0.10001,0.40002-0.10001,0.70006-0.20001,1.1001c-0.10001-0.10001-0.10001-0.20001-0.20001-0.40002
		c-4.10037-7.00063-10.90097-12.00108-16.90152-17.20155c-3.20029-2.80025-6.30057-5.70051-8.9008-9.00081
		c-1.30011-1.70016-2.50023-3.50032-3.50031-5.30048C213.32291,116.25494,213.72293,116.65498,214.22298,117.05502z
		 M40.6073,67.75056c-2.90026-1.00009-5.80053-2.10019-8.40076-3.60033c-2.30021-1.40012-5.20047-3.60032-5.60051-6.50058
		c-0.20002-1.40013,1.00009-1.70016,2.2002-1.90017c1.30012-0.20002,2.70024-0.20002,4.10037-0.40004
		c3.00027-0.30003,5.90054-0.80007,8.8008-1.50013c5.80052-1.50014,11.50104-3.70034,16.80152-6.6006
		c3.90035-2.10019,7.50068-4.5004,10.90098-7.30066c-1.80016,2.80025-3.50031,5.80053-4.90044,8.8008
		c-2.10019,4.60041-3.70033,9.30084-5.00045,14.10127h-0.10001c-6.50059,3.3003-14.20128,3.40031-20.80188,0.40004
		c-1.90017-0.80007-3.50031-2.00018-5.20047-3.20029c-0.20002-0.20002-0.60005,0.40004-0.40004,0.60005
		c2.50023,2.50023,6.20056,4.20038,9.60086,5.00045c3.60032,0.90009,7.40067,0.90009,11.001,0.10001
		c2.00018-0.40003,3.90035-1.1001,5.6005-2.10019c-0.20002,0.70006-0.40004,1.50013-0.50004,2.20019
		C53.80849,70.55082,46.50783,69.65073,40.6073,67.75056z M2.10382,144.05746c-0.10001-4.50041,1.80016-8.70079,4.80043-11.90108
		c3.10028-3.30029,7.00063-5.40048,11.30102-6.7006c-2.2002,1.00009-4.30039,2.10019-6.10055,3.60033
		c-0.20002,0.10002-0.30003,0.80008,0.10001,0.60007c1.40013-0.70007,2.70024-1.60016,4.10037-2.30022
		s2.90026-1.40013,4.4004-1.90018s3.00027-1.00008,4.50041-1.30012c0.70006-0.20001,1.50014-0.30003,2.2002-0.40004
		c0.80007-0.10001,1.70016-0.10001,2.50023-0.40004c0.10001,0,0.20002-0.20001,0.30003-0.30003
		c1.90017-0.40004,3.80034-0.80008,5.6005-1.40013c2.00018-0.70006,4.10037-1.50013,6.00054-2.60023
		c-1.00009,1.2001-2.10019,2.30021-3.20029,3.40031c-3.3003,3.20029-6.90062,6.20056-10.60096,8.8008
		c-2.2002,1.50014-4.4004,2.80026-6.70061,4.20038c-0.20002,0.10001-0.40004,0.90007,0,0.70006l0,0
		c4.20038-2.00018,8.10073-4.70042,11.70106-7.60069c3.70033-2.90026,7.10064-6.20055,10.10091-9.80089
		c0.40004-0.40004,0.70007-0.90009,1.1001-1.30012c0.50005-0.40004,0.90008-0.70007,1.30012-1.1001
		c-2.90026,5.00045-6.80061,9.40085-11.001,13.3012c-4.50041,4.20036-9.50086,7.70068-14.4013,11.40102
		c-4.80043,3.70033-9.50086,7.90071-12.30111,13.4012c-0.20002,0.40004-0.40004,0.80008-0.60005,1.20012
		c-0.10001-0.10002-0.20002-0.10002-0.20002-0.20003c0.10001-1.00009,0.20002-2.00018,0.50005-3.00026
		c0.40004-1.60016,0.90008-3.1003,1.60014-4.50041c1.40013-2.90025,3.50032-5.40048,6.00054-7.40067
		c0.70006-0.60005,1.50014-1.1001,2.30021-1.60014c0.80007-0.50005,1.70016-0.90009,2.40022-1.40013
		c0.20002-0.10001,0.50005-0.80006,0.10001-0.70006c-0.80007,0.10002-1.60015,0.60007-2.30021,1.00009
		c-0.70006,0.40002-1.50014,0.90007-2.2002,1.40012c-1.40013,1.00009-2.60023,2.2002-3.70033,3.50032
		c-2.2002,2.60025-3.90035,5.70052-4.80043,9.10083c-0.30003,1.00009-0.50005,2.00018-0.60005,3.10028
		C3.60395,151.95818,2.20383,147.95781,2.10382,144.05746z M46.10779,152.65825c-5.20047,2.3002-9.20083,6.80061-10.80098,12.40111
		c-0.40004,1.30013-0.60005,2.70024-0.60005,4.10037c-0.60005-1.90016-0.90008-3.90034-0.70007-6.00053
		c0.70007-6.20056,6.10055-11.60106,11.40103-14.3013c5.5005-2.80025,12.00109-3.30029,17.90162-1.50014
		c5.70052,1.70015,12.60114,6.10056,13.50122,12.40112c0.40004,2.3002-0.30003,4.60042-1.30012,6.80061
		c0.30003-2.30022,0.10001-4.70042-0.90009-6.90062c-0.60005-1.50014-1.60014-2.80025-2.70024-3.90034
		c-0.90009-1.1001-1.90017-2.2002-3.00027-3.10028c-2.40022-1.90016-5.30048-3.20029-8.30075-3.90034
		c-6.50059-1.40013-13.10119,0.70006-18.40166,4.60042c-3.00027,2.30022-5.70052,5.10046-7.60069,8.40076
		c-0.20002,0.30002,0.10001,0.50005,0.30003,0.20001l0,0c3.70033-5.30049,8.9008-9.80089,15.10136-11.70105
		c5.40049-1.60016,11.30102-1.00009,16.10145,1.90016c-1.2001-0.50005-2.40022-0.80008-3.60032-1.10011
		C57.3088,149.85799,51.30826,150.35803,46.10779,152.65825z M82.61109,187.26137c0.30003,0,0.50005,0,0.80007,0l-0.10001,0.10001
		C83.11114,187.36137,82.91112,187.26137,82.61109,187.26137z M133.61571,157.95871
		c-5.60051,1.2001-9.90089,4.80045-12.90117,9.50085c-3.10028,4.70042-4.90044,10.50096-9.10082,14.40131
		c-6.80061,6.20055-16.00144,7.00063-25.00226,6.00053c5.40049-0.10001,10.80098-1.80016,15.4014-4.30038
		c2.80025-1.50014,5.40049-3.4003,7.60069-5.60051c2.40022-2.30022,4.4004-5.00046,6.30057-7.7007
		c2.2002-3.10028,4.50041-6.20056,7.40067-8.70079c0.30003-0.20001,0.30003-1.00008-0.20001-0.60005
		c-5.20047,4.10037-8.00072,10.30093-12.40112,15.10136c-4.4004,4.70042-10.10091,8.00073-16.30148,9.70088
		c-2.40022,0.70006-4.90044,1.00009-7.40067,1.2001c5.20047-0.70006,10.30093-2.30022,14.90134-5.00046
		c5.80053-3.4003,10.00091-8.20073,14.00127-13.4012c2.10019-2.70024,4.20038-5.40048,6.90063-7.7007
		c2.90026-2.40021,6.50059-4.00035,10.20092-4.60042c4.10039-0.60005,8.50078,0.10002,12.00108,2.30022
		c0.40004,0.30002,0.80008,0.50005,1.20012,0.80006C142.41649,157.45866,137.81609,157.05864,133.61571,157.95871z
		 M192.82106,155.15848c-4.00037,3.4003-6.30058,8.30075-8.50078,13.00117c-2.10019,4.5004-4.30038,8.8008-8.10074,12.2011
		c-3.80034,3.4003-8.40076,5.80052-13.30121,7.00063c-1.60014,0.40004-3.30029,0.70006-5.00044,0.80008
		c1.60014-0.50005,3.10028-1.2001,4.5004-2.00018c6.30058-3.50032,10.90099-9.50085,14.60133-15.60141
		c3.70033-6.00055,6.6006-13.00117,12.2011-17.60159c5.70052-4.70042,14.00127-5.70052,20.50186-2.1002
		c3.50031,1.90016,6.20055,5.00046,7.60069,8.70079c0.10001,0.10001,0.10001,0.30002,0.10001,0.40002
		c-0.90007-1.40012-1.90016-2.70024-3.10028-3.90034c-1.50014-1.80017-3.50032-3.30031-5.60051-4.3004
		c-2.50023-1.2001-5.20047-1.70015-7.90071-1.60014c0.70006-0.10002,1.50014-0.10002,2.2002-0.10002
		c0.30003,0,0.70006-0.80006,0.30003-0.80006c-4.60043-0.50005-9.30084,1.70015-12.80116,4.5004
		c-3.90034,3.1003-6.70061,7.30067-9.00081,11.70107c-1.30013,2.60023-2.50023,5.20045-3.60034,7.9007
		c-0.10001,0.30003,0.20001,0.40004,0.40004,0.10002c2.10019-4.40039,4.10037-8.9008,6.90062-13.00117
		c2.70023-3.80035,6.10056-7.00064,10.30093-8.9008c-6.40057,3.00027-10.40094,9.80089-13.40121,15.90143
		c-2.3002,4.50041-4.5004,9.20084-7.8007,13.1012c-0.30003,0.30003-0.10002,0.90007,0.30003,0.40002
		c5.7005-6.30057,7.90071-14.90134,13.00117-21.60196c2.3002-3.10028,5.30048-6.00053,9.00081-7.40065
		c3.20029-1.2001,6.70061-1.2001,10.0009-0.20003C201.82187,150.65807,196.72141,151.85817,192.82106,155.15848z
		 M242.22551,165.35939c-2.30022,9.20082-11.50104,14.50131-20.60187,13.50122c0.30003-0.90007,0.50005-1.90016,0.70006-2.80026
		c0.30003-1.50014,0.50005-3.00026,0.50005-4.5004c0.10002-3.00027-0.20001-6.20056-1.30013-9.10083
		c-0.10001-0.30003-0.50003,0.20001-0.40002,0.40002c0.70006,2.90025,1.10011,5.80054,1.00009,8.8008
		c-0.10002,1.50014-0.20001,2.90025-0.50005,4.3004c-0.20001,0.80006-0.30003,1.50014-0.60005,2.3002
		c0,0.20003-0.10002,0.30003-0.20003,0.50005c-0.20001,0-0.40002-0.10001-0.60005-0.10001
		c0.40002-2.30022,0.60005-4.60043,0.50005-6.90062l0,0c-0.10002-7.10065-0.60007-14.80135-5.80054-20.00182
		c-2.80025-4.60042-8.50076-7.40065-13.90125-7.30066c-8.20073,0.20001-15.20137,5.60051-19.90179,12.00108
		c-2.80025,3.90034-5.00044,8.10074-6.90062,12.50113c-0.20001,0.40004,0.30003,0.40004,0.40004,0.10002
		c3.50031-7.20065,7.40067-14.60133,14.10127-19.30174c3.1003-2.2002,6.70061-3.70033,10.50095-4.10039
		c3.50032-0.40002,7.00064,0.40004,10.00092,2.1002c0.30002,0.20001,0.70006,0.40002,1.00009,0.60005
		c-4.70042-2.3002-10.20093-2.60023-15.30139-0.70006c-6.90062,2.60025-11.30103,8.50076-14.90134,14.70132
		c-3.80035,6.5006-7.30067,13.30121-13.00117,18.40166c-2.1002,1.80017-4.40039,3.30031-6.80063,4.40039
		c3.40031-1.90016,6.30058-4.60042,8.80081-7.60069c1.70015-2.10019,3.4003-4.30038,4.70041-6.70059
		c0.20003-0.30003-0.10001-0.70007-0.30002-0.30003c-2.70024,3.80034-5.30049,7.60069-8.8008,10.60097
		c-3.40031,3.00026-7.50069,5.10046-12.0011,5.80052c-2.70024,0.10001-5.50049-0.30003-8.10074-1.40012
		c-0.40002-0.60007-0.30002-0.80008,0.10002-1.30013c0.40002-0.60007,0.90007-1.2001,1.40012-1.80017
		c1.80017-2.2002,3.60034-4.40039,5.00046-6.90062c1.30013-2.40021,2.2002-5.00044,1.80017-7.8007
		c0-0.30003-0.10002-0.70006-0.20003-1.00009c0-3.20029-2.00017-6.40057-4.20036-8.50076
		c-2.50023-2.40021-5.70052-3.80035-9.10083-4.3004c-7.40067-1.00008-14.40131,2.2002-19.50177,7.50069
		c-4.80043,5.00044-8.20074,11.10101-13.70123,15.5014c-5.00045,4.00035-11.101,6.6006-17.40157,7.60069
		c-5.70051,1.00009-11.60104,0.70006-17.20156-0.90009c1.70016,0.40004,3.40031,0.60007,5.20047,0.80008
		c1.70015,0.10002,3.40031,0.10002,5.00045,0s3.40031-0.20001,4.90044-0.80008c0.20002-0.10001,0.60005-0.70006,0.20002-0.70006
		c-0.80008,0-1.50014,0.20001-2.30022,0.30003c-0.80007,0.10002-1.70015,0.20001-2.50022,0.30003
		c-1.60014,0.10001-3.3003,0.10001-4.90044,0c-3.20029-0.20001-6.50059-0.80008-9.60087-1.70015
		c0.10001-0.50005,0.40004-0.90009,0.70006-1.30013c0,0.10002,0.20002,0.10002,0.30003,0
		c4.30039-4.00037,8.70078-8.40076,10.60095-14.10129c1.90018-5.80052,0.60005-12.3011-3.60032-16.80151
		c-2.2002-2.30022-5.00045-4.10037-8.00072-4.80043c-0.20001,0-0.50005,0.50005-0.20001,0.50005l0,0
		c2.60023,0.90007,5.00045,2.2002,7.00063,4.10037c2.10018,1.90016,3.60032,4.40039,4.4004,7.10065
		c0.90008,2.80025,1.00008,5.90053,0.20001,8.8008c-0.70006,2.80026-2.2002,5.30048-3.90035,7.50067
		c-1.30013,1.60016-2.70024,3.1003-4.10037,4.50041c0.30003-0.40002,0.60005-0.80008,0.90009-1.2001
		c0.90009-1.30013,1.60014-2.60023,2.30021-4.10037c1.90018-3.1003,3.90035-6.40057,4.5004-10.00092
		c1.20011-7.40065-5.30048-13.20119-11.50104-15.90143c-1.30012-0.60005-2.60023-1.00009-4.00036-1.30011
		c0-0.10002,0-0.20003-0.10001-0.20003c-1.40013-0.80006-3.00027-1.1001-4.60041-1.30011
		c-1.60014-0.20003-3.3003-0.30003-5.00045-0.10002c-3.20029,0.30003-6.40058,1.10011-9.20083,2.60023
		c-1.60014,0.90009-3.20029,1.90018-4.60041,3.1003c-0.30003,0.20001-0.30003,1.00009,0.20002,0.60005
		c3.20029-2.60023,6.90062-4.30038,10.90099-5.00044c1.50014-0.30003,3.00027-0.40004,4.60041-0.40004
		c-2.90026,0.20003-5.70052,0.90009-8.50077,2.1002c-6.30057,2.80025-12.00109,8.40076-14.00127,15.00136
		c-1.90017,6.40057,0.60005,13.30119,5.5005,17.60159c0.20002,0.30003,0.40004,0.50005,0.60006,0.80008
		c1.00009,1.30011,2.2002,2.80025,2.80025,4.40039c-3.00027-0.10002-6.10055-0.30003-9.10083-0.70006
		c-0.30003-0.10002-0.60005-0.10002-0.90008-0.20003c-1.60015-0.40002-3.20029-0.80006-4.70042-1.40012
		c-1.50014-0.60005-3.00027-1.2001-4.4004-2.00018c-1.40013-0.70006-2.90026-1.50014-4.30039-2.40021
		c-0.20002-0.10002-0.50005,0.40002-0.30003,0.50005l0,0c1.30012,1.00009,2.60023,1.90016,4.10037,2.70024
		c0.40004,0.20001,0.80007,0.40002,1.20011,0.60007c-4.20038-1.50014-8.00072-3.80035-11.00099-7.40067
		c-3.3003-4.00037-5.00045-9.10083-3.70033-14.3013c1.30012-5.40048,5.30048-9.70087,9.40085-13.20119
		c4.60042-3.90034,9.70088-7.20065,14.30129-11.10101c4.4004-3.70033,8.60078-7.90071,12.00108-12.60114
		c6.90063-9.30084,10.20092-20.40185,12.40112-31.60285c0-0.20002,0.10001-0.40004,0.10001-0.60005
		c-0.60006,11.40103-4.30039,22.50203-11.001,31.70287c-1.90017,2.60023-4.10037,5.00045-6.20056,7.40066
		c-0.20002,0.20003-0.10001,0.70007,0.20002,0.40004c2.2002-1.90018,4.10037-4.10037,5.90054-6.40058
		c1.80016-2.30022,3.40031-4.80044,4.80043-7.40067c2.80025-5.20047,4.80043-10.70097,6.00054-16.50149
		c0.70007-3.20029,1.00009-6.50059,1.00009-9.9009c0-0.40003-0.40004-0.10001-0.50005,0.20002
		c0.50005-2.60023,0.90009-5.30048,1.40013-7.90072c0,0.70006,0,1.40013,0.10001,2.00018
		c0.60005,6.10055,3.90035,11.40103,8.40076,15.30138c1.90017,1.70015,4.60041,3.40031,7.30066,2.80025
		c2.70024-0.60005,4.20038-3.20029,4.90044-5.70051c1.40013-5.00046,0.50005-10.60096-1.70015-15.20137
		c-1.30012-2.70024-3.10027-5.00046-5.40049-7.00063c-2.30021-2.00018-5.6005-4.00037-8.80079-3.00027
		c-0.30003,0.10001-0.60005,0.50005-0.80007,0.90009c-1.00009,0.80007-1.80016,1.90017-2.40022,3.00027
		c-0.30003,0.60006-0.50005,1.20011-0.70006,1.80017c1.1001-6.50059,2.30021-13.10118,4.30039-19.40176
		c3.3003-10.30093,9.00081-19.70178,16.40148-27.6025C96.1123,12.64566,119.61442,3.74485,142.91653,3.04479
		c6.40057-0.20002,12.90115,0.10001,19.00172,2.2002c5.50049,1.90017,10.60095,5.00045,15.10136,8.60078
		c8.9008,7.20065,16.10146,16.50149,20.90189,26.90243c0.50005,1.00009,0.90007,2.00018,1.30011,3.00027
		c-2.3002-1.50013-4.60042-3.00027-6.80061-4.70042c-3.80034-3.00027-6.90062-6.60059-9.70087-10.60096
		c-0.70006-1.1001-2.30022,1.30012-1.80017,2.2002c4.3004,7.50068,11.50104,13.50122,19.00172,17.60159
		c7.8007,4.4004,16.30147,7.7007,24.90224,10.40094c0.50005,0.20002,0.90007,0.30003,1.40012,0.50005
		c-6.40057-1.30012-12.60114-3.10028-18.60168-5.80052c-6.20056-2.80025-12.10109-6.40058-17.50157-10.70097
		c-1.50014-1.20011-3.00027-2.50023-4.50041-3.90035c-1.40012-1.30012-2.70024-2.70024-4.10037-4.10037
		c-0.20003-0.20002-0.50005,0.30003-0.40004,0.40004c2.1002,2.70024,4.70042,5.00045,7.30066,7.20065
		c2.70024,2.2002,5.5005,4.30039,8.40076,6.20056c5.90053,3.70033,12.2011,6.7006,18.80171,8.80079
		c3.70032,1.20011,7.50067,2.10019,11.40102,2.60023c0.20001,0,0.40002-0.30003,0.40002-0.50005
		c4.70042,1.50013,9.40085,3.00027,14.40131,3.40031c0.10001,1.30011-1.80017,2.60024-2.70024,3.4003
		c-1.2001,1.00009-2.40022,2.00018-3.70033,2.80025c-2.60025,1.70015-5.40048,3.10028-8.30075,4.10037
		c-5.90053,2.00018-12.20111,2.70024-18.50168,2.00018c-6.6006-0.80007-13.00117-3.00027-18.70169-6.20055
		c-2.10019-1.2001-4.20038-2.50023-6.20055-4.00036c0-0.10001,0-0.10001,0-0.10001c-0.70007-0.70006-1.50014-1.30011-2.2002-2.00018
		c-0.80008-0.70007-1.50014-1.50014-2.30022-2.30021c-1.40012-1.60014-2.60023-3.3003-3.70033-5.10046
		c-1.1001-1.80016-1.90016-3.70033-2.60023-5.70052c-0.70006-2.00018-1.2001-4.00036-1.90018-5.90054
		c-0.80006-2.10019-1.70015-4.30038-3.30029-5.90053c-0.20001-0.30003-0.70006,0.30003-0.50005,0.60005
		c1.30013,1.70015,2.30022,3.50032,3.10028,5.5005c0.70006,2.00018,1.30013,4.00036,2.00018,6.00054
		c0.80008,2.40022,1.80017,4.80043,3.10028,6.90063c-0.20001-0.30003-0.50003-0.60005-0.70006-1.00009
		c-3.90034-5.5005-3.80034-12.80116-8.8008-17.7016c-0.70006-0.70007-1.90016,1.00009-1.30011,1.60014l0,0
		c2.3002,2.50023,2.90025,5.80052,3.70032,9.00081c0.80008,3.20029,1.70015,6.60059,3.70033,9.30084
		c2.1002,2.90026,5.10048,5.20047,7.90071,7.40067c2.80026,2.2002,5.80052,4.20037,9.00081,5.90054
		c5.90053,3.20029,12.40112,5.40049,19.00172,6.20055c-0.60007,0.30003-1.00009,1.00009-1.2001,1.50014
		c-5.5005,16.70152-1.40012,35.90324,11.00099,48.60439C227.32417,138.05692,246.62592,148.25784,242.22551,165.35939z
		 M63.30935,73.45108c2.30021-0.20001,4.40039,1.10011,6.10055,2.50023c1.60014,1.30012,3.10028,2.80025,4.20038,4.5004
		c2.10019,3.00027,3.40031,6.6006,3.70033,10.20092c-0.70006-2.90026-2.10019-5.6005-3.70033-8.00072
		c-1.60014-2.30021-3.80035-4.90044-6.90062-4.30038c-2.70025,0.50004-4.90045,3.00027-5.70052,5.5005
		c-0.10001,0.50005-0.30003,0.90008-0.30003,1.40012c-0.50005-2.10019-0.70007-4.30039-0.40004-6.40058
		C60.6091,76.85139,61.30917,74.45117,63.30935,73.45108z M67.10969,84.05204c-2.2002,0.70006-3.40031,3.10028-3.60032,5.40049
		c0,0.30003,0,0.50005,0,0.80007c-0.80007-2.2002-1.50013-4.5004-0.50005-6.7006c0.50005-1.1001,1.60015-2.10019,2.80026-2.40022
		c1.50014-0.30003,2.90026,0.40003,4.00036,1.50013c0.90009,0.90009,1.70015,1.90018,2.40022,2.90027
		C70.81003,84.25205,68.90986,83.45199,67.10969,84.05204z"/>
	<path d="M156.9178,69.2507c-4.00037-0.40004-8.10074,0.80007-11.50104,2.90026c-3.00027,2.00018-6.30057,5.10046-7.30066,8.70078
		c-2.70024,6.10055-4.00037,14.00127,1.30011,18.90171c2.80026,2.60023,7.10065,3.90035,10.80098,4.00036
		c4.10039,0.10001,7.90071-1.40012,11.30103-3.50031c3.1003-2.00018,6.20056-4.5004,8.00073-7.8007
		c1.70015-3.10028,2.3002-6.80062,1.70015-10.30093C170.21901,75.15124,164.01845,69.95077,156.9178,69.2507z M163.5184,88.55244
		c-0.50005-3.3003-3.30031-6.00054-6.40057-7.20065c-5.80052-2.2002-13.10118,0.70006-16.30147,5.90054
		c0.40002-1.30012,0.90007-2.50023,1.70015-3.60033c2.3002-3.50031,6.00053-5.5005,10.10091-5.80052
		c4.00037-0.30003,8.9008,1.1001,10.90099,4.80043c1.30013,2.40022,1.00009,5.40049,0,8.10073
		C163.61842,90.05258,163.61842,89.25251,163.5184,88.55244z M168.71887,89.85257c-1.00009,3.00027-3.4003,5.20046-5.90053,7.00063
		c-0.50005,0.30003-1.00009,0.70006-1.50014,1.00008c3.80034-4.00036,6.00055-9.70087,5.10046-14.80134
		c-0.90007-5.20046-6.50058-7.90071-11.30103-8.00072c-4.90044-0.10001-9.70087,2.2002-12.80116,6.00054
		c-2.2002,2.70024-3.70032,6.10056-4.20036,9.60087c0-0.10001,0-0.10001,0-0.20001
		c-0.40004-3.40031,0.70006-6.50059,1.90016-9.50086c1.40012-2.50022,3.10028-4.60041,5.60051-6.30057
		c2.60023-1.70015,5.60051-2.70024,8.70079-2.70024c6.00053-0.10001,12.10109,3.50031,14.20128,9.20083
		C169.41893,83.85203,169.61896,87.05231,168.71887,89.85257z"/>
	<path d="M180.0199,60.24989c-0.50005-0.60005-1.10011-1.30012-1.60016-2.00018c-1.00009-1.40013-1.90016-2.90026-2.70024-4.4004
		c-1.60014-3.10028-2.70024-6.40058-3.30029-9.90089c-0.10002-0.30003-0.50005,0.20002-0.50005,0.40004
		c0.50005,3.50032,1.50014,6.90062,3.10028,10.10091c0.80008,1.60014,1.70015,3.10028,2.70024,4.5004
		c0.50005,0.70007,1.10011,1.40013,1.60016,2.10019c0.50005,0.60005,1.1001,1.30012,1.80016,1.80016
		c0.20001,0.20002,0.50005-0.40004,0.40004-0.60005C181.22,61.55001,180.61995,60.94995,180.0199,60.24989z"/>
	<path d="M175.81952,50.54902c-0.10002-0.20002-0.50005,0.30003-0.40004,0.50004c1.00009,2.30021,2.40022,4.50041,3.90036,6.50059
		c0.80006,1.00009,1.60014,2.00018,2.40021,3.00027c0.40002,0.50005,0.80008,0.90009,1.30011,1.30012
		c0.40004,0.40004,0.90009,1.00009,1.40013,1.30012c0.30003,0.20002,0.60005-0.40004,0.50005-0.70007
		c-0.30003-0.50004-0.90009-0.90008-1.30013-1.30011c-0.40002-0.40004-0.90007-0.90009-1.30013-1.30012
		c-0.90007-0.90009-1.70015-1.90017-2.40021-2.90026C178.31975,54.8494,177.11964,52.6492,175.81952,50.54902z"/>
	<path d="M198.02151,51.64911c1.70015,0.90008,3.4003,1.80016,5.10048,2.50023c0.90007,0.40004,1.70015,0.80007,2.60023,1.1001
		c0.80008,0.30003,1.70015,0.70006,2.60023,0.80007c0.20001,0,0.60007-0.50005,0.30003-0.60005
		c-0.80008-0.50005-1.80017-0.70007-2.60023-1.1001c-0.90009-0.30003-1.80017-0.70007-2.60025-1.1001
		c-1.70015-0.70006-3.4003-1.50013-5.00044-2.40022c-3.30031-1.80016-6.40057-3.90036-9.40085-6.10055
		c-0.20001-0.10001-0.50005,0.40004-0.30003,0.50005C191.52094,47.74876,194.72122,49.84895,198.02151,51.64911z"/>
	<path d="M202.1219,71.85094c-3.70033-0.80008-7.10065-2.2002-10.40094-3.80035c-0.20001-0.10001-0.50005,0.40003-0.30003,0.50004
		c2.80026,1.70016,5.90053,2.90027,9.10083,3.80035c3.20029,0.90009,6.6006,1.40013,9.90089,1.50014
		c6.6006,0.20002,13.30121-1.00009,19.40175-3.50031c1.70015-0.70007,3.4003-1.50014,5.00044-2.50023
		c1.60016-0.90009,3.30031-2.00018,4.70042-3.20029c0.20001-0.20001,0.30003-0.90008-0.10002-0.60005
		c-1.40012,0.90009-2.60023,1.90018-4.00035,2.70024c-1.40013,0.80008-2.80026,1.60014-4.3004,2.30021
		c-3.00026,1.40013-6.10056,2.40022-9.30084,3.00027C215.22307,73.35107,208.52246,73.25106,202.1219,71.85094z"/>
	<path d="M208.82249,70.95086c1.60016,0.50005,3.4003,0.50005,5.00046,0.50005c1.70015,0,3.4003-0.20002,5.10046-0.50005
		c1.70015-0.30003,3.30031-0.80008,4.90044-1.40013c1.50014-0.60005,3.30031-1.2001,4.60042-2.30021
		c0.10002-0.10001,0.40004-0.80007,0-0.70006c-0.80006,0.20001-1.40012,0.70006-2.2002,1.00009
		c-0.70006,0.40003-1.50014,0.70006-2.3002,1.00008c-1.60016,0.60006-3.20029,1.1001-4.80045,1.40013
		c-1.60014,0.30003-3.30029,0.50005-5.00044,0.60005c-1.70015,0-3.4003-0.20001-5.10048-0.20001
		C208.82249,70.45081,208.52246,70.85085,208.82249,70.95086z"/>
	<path d="M159.51804,7.94516L159.51804,7.94516c10.40094,4.20038,19.60178,10.80098,26.70241,19.60177
		c2.00018,2.40022,3.60034,5.00045,5.40048,7.60069c0.20003,0.30003,0.60007-0.30003,0.50005-0.60005
		c-1.30011-2.50023-2.90025-4.80043-4.60042-7.00064c-1.70015-2.2002-3.60033-4.30039-5.60051-6.20056
		c-4.00037-3.90035-8.40076-7.30066-13.20119-10.0009c-2.80026-1.60015-5.70052-3.00027-8.70079-4.00036
		C159.61806,7.04508,159.21802,7.74515,159.51804,7.94516z"/>
	<path d="M182.92015,25.34674c-0.60007-0.60005-1.2001-1.30012-1.80017-1.90017c-1.2001-1.20011-2.50023-2.40022-3.80034-3.50032
		c-2.70024-2.2002-5.5005-4.30039-8.60078-6.00054c-0.20001-0.10001-0.60007,0.40004-0.30003,0.60005l0,0
		c2.90025,1.90017,5.70052,3.90035,8.40076,6.10055c1.40012,1.20011,2.70024,2.40022,3.90034,3.60032
		c0.60005,0.60005,1.2001,1.20011,1.70015,1.80016c0.60005,0.60006,1.1001,1.40013,1.80017,1.80016
		c0.30002,0.20002,0.60005-0.40004,0.40002-0.60006C184.12027,26.54684,183.4202,25.94679,182.92015,25.34674z"/>
	<path d="M207.42236,113.5547c-2.90025-6.7006-4.50041-14.00126-4.50041-21.30193c0-4.10036,0.60007-8.20074,1.50014-12.10109
		v-0.10001c0-0.10001-0.10001-0.20002-0.20001-0.20002c-0.50005-0.20001-1.00009-0.30003-1.60014-0.30003
		c-0.60007-0.10001-1.30013-0.20002-1.90018-0.30003c-1.30011-0.20001-2.50023-0.50005-3.70033-0.90008
		c-1.2001-0.40004-2.50021-0.80008-3.70033-1.20011c-1.2001-0.50005-2.40021-1.00009-3.60033-1.50013
		c-0.30003-0.10001-0.60005,0.40003-0.30003,0.60005l0,0c2.1002,1.40012,4.70042,2.2002,7.10065,3.00027
		c1.20012,0.40004,2.40022,0.70006,3.70033,0.90009c1.10011,0.20001,2.40022,0.60005,3.60034,0.50005
		c-2.00018,7.00063-2.1002,14.5013-0.80008,21.70197c0.90007,5.10046,2.60023,10.10091,4.90044,14.80134
		c-0.70006-1.2001-1.40012-2.30021-2.00018-3.50031c-1.1001-2.2002-2.00018-4.50041-2.80025-6.80062
		c-1.50014-4.60041-2.40022-9.40085-2.50023-14.30129c-0.10002-2.70024,0.10001-5.40049,0.40002-8.10073
		c0-0.50005-0.60005,0-0.60005,0.20001c-0.40004,2.40022-0.50005,4.90044-0.50005,7.30067
		c0,2.40022,0.20001,4.90044,0.60005,7.30066c0.70006,4.90044,2.2002,9.60087,4.3004,14.10127
		c0.60005,1.30012,1.2001,2.50023,1.90016,3.70033s1.40012,2.40022,2.3002,3.40031c0.20003,0.20002,0.50005-0.20001,0.50005-0.50005
		c0.60007,1.00009,1.20012,2.00018,1.80017,2.90027c2.30022,3.50031,5.10046,6.60059,8.30075,9.30083
		c0.30003,0.20003,0.80008-0.60005,0.50005-0.80006C214.72302,126.35587,210.32263,120.25531,207.42236,113.5547z"/>
	<path d="M237.92513,161.45903c1.00009-6.90062-1.40013-13.70123-5.60052-19.10173c-1.2001-1.50014-2.60023-3.00027-4.10037-4.3004
		c-1.60014-1.40012-3.20029-2.40021-5.00044-3.50031c-0.20003-0.10002-0.60007,0.40002-0.30003,0.60005
		c2.90025,1.80017,5.50049,4.10037,7.70068,6.70061c2.2002,2.50023,4.00037,5.40048,5.20047,8.50076
		c2.30022,6.00055,2.1002,12.90117-1.00009,18.60168c-0.80008,1.50014-1.80016,2.90025-3.00027,4.20038
		c-1.2001,1.30013-2.70024,2.2002-4.10037,3.30031c-0.10001,0.10001-0.30003,0.70006,0,0.60005
		c1.40012-0.50005,2.70024-1.60014,3.80035-2.60023c1.2001-1.10011,2.2002-2.40021,3.10028-3.70033
		C236.32498,167.85962,237.52509,164.65933,237.92513,161.45903z"/>
	<path d="M238.02513,153.85835c0.40004,1.90016,0.60007,3.90034,0.60007,5.90053c-0.10002,3.70033-1.2001,7.40067-3.00027,10.60097
		c-1.10011,1.80016-2.40021,3.50031-3.90034,5.00044c-0.20001,0.20001-0.20001,0.90009,0.20001,0.60007l0,0
		c5.80052-5.40048,8.50076-13.60124,7.10065-21.50195c-0.40002-2.2002-1.00009-4.60042-2.30022-6.50058
		c-0.20001-0.30003-0.60005,0.30003-0.50003,0.50005C236.82503,150.25803,237.52509,151.95818,238.02513,153.85835z"/>
	<path d="M239.32526,163.2592c0,0.90007-0.20001,1.80016-0.40002,2.60023c-0.40004,1.70015-1.20012,3.4003-2.20021,4.80043
		c-0.20001,0.30003,0,0.70006,0.30003,0.40004c1.2001-1.50014,2.1002-3.20029,2.60025-5.10046
		c0.20001-0.90009,0.40002-1.80017,0.50005-2.80026c0.10001-0.90007,0.10001-2.00018-0.20003-2.90025
		c-0.10001-0.40004-0.50005,0.20001-0.50005,0.40002C239.32526,161.55904,239.42525,162.35912,239.32526,163.2592z"/>
	<path d="M230.42444,127.05592c3.30031,0.70007,6.70061,1.50014,9.50085,3.4003c0.80008,0.50005,1.50014,1.10011,2.1002,1.80017
		c0.60005,0.70006,1.1001,1.50014,1.70015,2.2002c0.20001,0.30003,0.50005-0.30003,0.50005-0.50005
		c-0.40002-1.50014-1.70015-2.80026-2.90025-3.70033c-1.30013-1.00009-2.80026-1.80017-4.3004-2.40022
		c-3.4003-1.30013-7.00063-1.80017-10.50095-2.70024c-2.10019-0.60005-4.20038-1.40013-6.10056-2.50023
		c-0.20001-0.10001-0.50005,0.40004-0.30003,0.60005C223.02377,125.55579,226.92412,126.25585,230.42444,127.05592z"/>
	<path d="M151.71733,176.16037c3.00027-4.90044,3.00027-11.50104,0-16.40147c-2.90025-4.80045-8.10074-7.60069-13.70123-7.60069
		c-6.00055,0-11.70106,2.80025-16.30148,6.50058c-5.00045,4.00037-9.10082,9.10083-13.70123,13.50122
		c-4.90044,4.70042-10.60096,8.9008-17.50159,10.0009c-0.30003,0-0.50005,0.70007-0.10001,0.60007
		c5.70052-0.50005,10.80098-3.70033,15.10136-7.40067c4.70042-4.00037,8.50077-8.8008,13.00117-13.00117
		c4.4004-4.10037,9.40085-7.70068,15.40139-8.9008c5.50049-1.1001,11.30103,0.40004,15.20137,4.50041
		c4.60042,4.90044,5.30048,12.1011,2.2002,18.00163C151.21729,176.26038,151.51732,176.46039,151.71733,176.16037z"/>
	<path d="M156.51778,184.76114c-0.40004,0.10001-0.80008,0.30003-1.20012,0.40002c-0.40002,0.10002-0.90007,0.20001-1.30011,0.30003
		c-0.90009,0.20001-1.90018,0.30003-2.80026,0.40002c-1.80016,0.10002-3.60033-0.30002-5.40048-0.70006
		c-0.20001,0-0.50005,0.50005-0.30003,0.60007c1.70015,0.80008,3.70033,1.00009,5.5005,1.00009
		c0.90007,0,1.80017-0.10002,2.70024-0.30003s1.90016-0.40002,2.70024-0.90007
		C156.61778,185.36119,156.9178,184.66113,156.51778,184.76114z"/>
	<path d="M36.80695,151.55814L36.80695,151.55814c-5.5005,5.40048-7.20065,14.00127-4.50041,21.20192
		c0.80007,2.00018,1.80016,4.10037,3.40031,5.60051c0.20002,0.20001,0.50005-0.40002,0.40004-0.60007
		c-1.00009-1.60014-2.00018-3.10028-2.80025-4.80043c-0.70007-1.70015-1.20011-3.50032-1.50014-5.30048
		c-0.50005-3.60034,0.10001-7.30067,1.70016-10.60097c0.90008-1.80017,2.10019-3.50032,3.40031-5.00046
		C37.20699,151.85817,37.10698,151.2581,36.80695,151.55814z"/>
	<path d="M11.40466,167.25955c-1.1001-3.4003-1.20011-7.00063-0.10001-10.40092c0.60005-2.00018,1.60015-3.80035,2.80025-5.5005
		c0.20002-0.30003,0.10001-0.80008-0.30003-0.40002l0,0c-4.80043,5.7005-5.30048,14.40129-1.50014,20.80188
		c1.00009,1.70015,2.40022,3.4003,4.10037,4.60042c0.30003,0.20001,0.80007-0.60005,0.60006-0.80008
		C14.50494,173.1601,12.50476,170.55986,11.40466,167.25955z"/>
	<path d="M239.92529,131.45631c-2.00017-1.60014-4.70041-2.90025-7.30066-2.80025c-0.20001,0-0.60005,0.60005-0.20001,0.60005
		c1.30013,0.30003,2.50023,0.50005,3.70033,1.00009c1.1001,0.50005,2.2002,1.10011,3.20029,1.90016
		c1.00009,0.80008,1.90016,1.70015,2.60023,2.70024c0.70006,1.00009,1.10011,2.2002,1.80017,3.30031
		c0.20001,0.30003,0.50005-0.30003,0.50005-0.40002c-0.20001-1.30013-0.80008-2.40022-1.60016-3.50032
		C241.92548,133.15648,241.02541,132.25639,239.92529,131.45631z"/>
	<path d="M23.20572,177.56049c-0.40004-0.20001-0.90008-0.50005-1.30012-0.70006c-0.80007-0.50005-1.60015-1.1001-2.40022-1.70015
		c-1.50014-1.2001-2.70024-2.70024-3.80034-4.20038c-1.1001-1.60014-1.90017-3.30029-2.50023-5.10046
		c-0.60005-1.90016-0.90008-3.80035-1.1001-5.70052c0-0.40002-0.50005,0-0.50005,0.30003
		c-0.20002,3.10028,0.80007,6.30057,2.10019,9.00081c1.40013,2.80026,3.40031,5.20047,5.80052,7.10065
		c0.70006,0.50005,1.40013,1.00009,2.2002,1.50014c0.70006,0.40004,1.50014,1.00009,2.40022,1.10011
		c0.30003,0,0.70006-0.60007,0.40004-0.80008C24.10581,177.96053,23.60576,177.86052,23.20572,177.56049z"/>
	<path d="M49.60811,122.05547c0.70007-0.70006,1.30012-1.80016,1.80016-2.70024c0.50004-0.90009,1.00009-1.90017,1.50013-2.90026
		c0.90008-2.00018,1.80016-4.00037,2.50023-6.10055c1.40013-4.10037,2.30021-8.50077,2.50023-12.80116
		c0-0.40004-0.50005,0-0.50005,0.20001c-0.50005,4.30039-1.30012,8.50077-2.70024,12.50113
		c-0.70007,2.00018-1.50014,4.00037-2.40022,5.90054c-0.50005,0.90009-0.90008,1.90018-1.40013,2.80025
		c-0.50005,0.90009-1.1001,1.80017-1.50014,2.80026C49.20807,121.95547,49.40809,122.25549,49.60811,122.05547z"/>
	<path d="M57.70884,103.05376c-0.20002,2.50023-0.60005,5.00045-1.1001,7.50068c-0.60005,2.50022-1.50014,4.80044-2.30021,7.20065
		c-0.10001,0.40004,0.30003,0.50005,0.50005,0.10001c1.20011-2.30021,1.90017-4.90044,2.50023-7.40067
		c0.60006-2.50023,1.00009-5.10046,1.00009-7.70069C58.3089,102.3537,57.70884,102.85374,57.70884,103.05376L57.70884,103.05376z"/>
	<path d="M200.42174,106.05403c-0.60007-1.60014-1.00009-3.20029-1.40013-4.80044c-0.70006-3.3003-1.00009-6.60059-1.00009-10.00091
		c0-0.40003-0.50005,0-0.50005,0.20002l0,0c-0.30002,3.40031,0,6.90062,0.70006,10.20091
		c0.40004,1.70016,0.80008,3.30031,1.40013,4.90045c0.60005,1.60014,1.2001,3.3003,2.10019,4.70042
		c0.20001,0.30003,0.70006-0.40004,0.60007-0.60005C201.72185,109.1543,200.92177,107.65417,200.42174,106.05403z"/>
	<path d="M198.72157,106.75409c-0.50005-1.70015-1.2001-3.40031-1.70015-5.10046c-0.50005-1.70015-0.90007-3.50031-1.1001-5.30048
		c-0.10002-0.50005-0.60007,0-0.60007,0.30003c0.20003,1.90018,0.40004,3.70033,0.90009,5.60051
		c0.50005,1.70015,1.00009,3.60032,2.00017,5.10046C198.32155,107.65417,198.72157,106.95411,198.72157,106.75409z"/>
	<path d="M19.50539,138.15694c-0.60005,0-1.1001,0.50005-1.50014,0.80008c-0.50005,0.40002-1.00009,0.80006-1.50014,1.2001
		c-1.00009,0.80006-1.90017,1.70015-2.70024,2.70024c-1.70015,1.90016-3.00027,4.20038-3.90035,6.6006
		c-0.20002,0.50005,0.30003,0.40002,0.50005,0l0,0c1.00009-2.2002,2.30021-4.3004,3.80034-6.10056
		c0.80007-0.90009,1.60014-1.70015,2.50023-2.50023c0.50005-0.40002,0.90008-0.70006,1.40013-1.10011
		c0.50004-0.30002,1.00009-0.60005,1.40013-1.1001C19.6054,138.65698,19.80542,138.15694,19.50539,138.15694z"/>
	<path d="M7.50431,133.85654c0.80007-1.1001,1.80016-2.10019,2.60023-3.20029c0.10001-0.10001,0.20002-0.70006-0.10001-0.50003
		c-1.20011,0.70006-2.10019,2.10019-2.90026,3.20027c-0.80007,1.20012-1.60014,2.50023-2.2002,3.80035
		c-1.20011,2.70024-1.90017,5.60051-1.90017,8.60078c0,0.40002,0.50005,0,0.50005-0.30003
		c0.10001-2.80025,0.80007-5.60051,2.00018-8.10074C6.10418,136.25676,6.80424,135.05666,7.50431,133.85654z"/>
	<path d="M114.31396,173.2601c-2.2002,3.00027-4.70042,5.60051-7.70069,7.8007c-1.50014,1.1001-3.10028,2.10019-4.70042,2.90025
		c-1.70015,0.90007-3.50031,1.50014-5.20046,2.2002c-0.20002,0.10002-0.50005,0.70006-0.10001,0.60007
		c1.80016-0.40004,3.60032-1.2001,5.30048-2.00018s3.30031-1.80017,4.80044-2.90025c3.10028-2.2002,5.90054-5.00046,8.00072-8.20074
		C114.91401,173.2601,114.61398,172.86006,114.31396,173.2601z"/>
	<path d="M113.7139,175.4603c-0.80007,1.1001-1.50014,2.2002-2.40022,3.20029c-0.90009,1.1001-2.00018,2.00018-3.10028,2.90025
		c-2.30021,1.80017-4.80044,3.00027-7.50068,4.00037c-0.20001,0.10001-0.40004,0.60005-0.10001,0.50005
		c2.80025-0.60007,5.40049-2.1002,7.70069-3.80035c2.30021-1.70015,4.50041-4.00037,5.80053-6.50058
		C114.31396,175.4603,114.01393,175.06026,113.7139,175.4603z"/>
	<path d="M100.61272,186.16127L100.61272,186.16127L100.61272,186.16127z"/>
	<path d="M135.31586,82.15187c-2.40021,5.80052-2.00018,12.60114,0.90007,18.20164c0.40004,0.80008,0.90009,1.50014,1.40013,2.2002
		s1.00009,1.60014,1.80016,2.00018c0.30003,0.20001,0.50005-0.40004,0.40004-0.60005
		c-0.40004-0.90009-1.2001-1.60014-1.80017-2.50023c-0.50005-0.80007-1.00009-1.60014-1.40012-2.40022
		c-0.80008-1.70015-1.40013-3.50032-1.80017-5.40049c-0.70006-3.80035-0.40002-7.80071,0.90007-11.50104
		C135.91591,81.85184,135.41586,81.85184,135.31586,82.15187z"/>
	<path d="M132.21558,86.9523c-0.40004,1.80017-0.60007,3.60033-0.50005,5.40049c0.10001,1.80017,0.30002,3.70033,1.00009,5.30048
		c0.10001,0.30003,0.50005-0.20001,0.50005-0.40004c-0.40004-1.70015-0.80008-3.40031-0.90009-5.20046
		c-0.10001-1.80017,0.10002-3.50032,0.30003-5.20047C132.81563,86.35225,132.31558,86.65228,132.21558,86.9523z"/>
	<path d="M79.21078,83.05195c-1.1001-3.00027-2.80026-5.90054-5.10046-8.20074c-1.30012-1.30012-2.70024-2.50023-4.30039-3.40031
		c-0.20001-0.10001-0.50005,0.40004-0.30003,0.50005c2.60023,1.80016,4.90044,4.00036,6.7006,6.7006
		c1.70015,2.60023,2.90026,5.6005,3.40031,8.8008c0.20002,0.90009,0.20002,1.80017,0.30003,2.80025c0,0.90009,0,1.80017,0,2.60023
		c0,0.40004,0.50005,0,0.50005-0.20001c0.30003-1.60014,0.20001-3.3003,0-4.80044
		C80.11086,86.15223,79.71082,84.65209,79.21078,83.05195z"/>
	<path d="M77.51063,76.55136c-0.20001-0.30003-0.60005,0.30003-0.50004,0.60005c0.80007,1.50014,1.60014,3.00027,2.30021,4.70042
		c0.60005,1.60014,0.90008,3.20029,1.40012,4.80044c0.10001,0.30003,0.50005-0.20002,0.50005-0.30003
		c-0.10001-1.80016-0.60005-3.50031-1.30012-5.10046C79.3108,79.55164,78.61073,77.95149,77.51063,76.55136z"/>
	<path d="M193.52112,98.55335c-0.10002-0.30003-0.50005,0.10001-0.50005,0.30003c0.10001,1.40013,0.40002,2.80025,0.60005,4.20038
		c0.20001,1.40013,0.40004,2.80025,0.80008,4.20038c0.10002,0.40004,0.60007-0.20002,0.60007-0.40004
		c-0.10002-1.40013-0.40004-2.80025-0.70007-4.20038C194.22118,101.25359,194.02116,99.85347,193.52112,98.55335z"/>
	<path d="M193.12108,98.85338L193.12108,98.85338L193.12108,98.85338z"/>
	<path d="M190.92087,75.25124c1.60016,0.80007,3.20029,1.40012,4.90044,2.00018c1.60016,0.60006,3.30031,1.10011,4.90044,1.50014
		c0.80008,0.20002,1.70015,0.40004,2.50023,0.50005c0.90007,0.20002,1.80017,0.40004,2.70024,0.40004
		c0.30003,0,0.70006-0.70006,0.30003-0.80008c-0.80008-0.20001-1.70015-0.30003-2.60025-0.50004
		c-0.80006-0.20002-1.70015-0.30003-2.50021-0.50005c-1.70015-0.40004-3.4003-0.90009-5.10048-1.50014
		c-1.60014-0.60005-3.20027-1.2001-4.70041-1.90018c-1.60016-0.70006-3.1003-1.60014-4.70042-2.40022
		c-0.30003-0.20001-0.70006,0.50005-0.40004,0.70006l0,0C187.72058,73.75111,189.32074,74.55119,190.92087,75.25124z"/>
	<path d="M202.62195,81.15178c-0.80008-0.10001-1.60016-0.10001-2.40022-0.20002s-1.60014-0.20001-2.40021-0.40003
		c-1.60014-0.40004-3.20029-0.90009-4.70042-1.60014c-0.30002-0.10001-0.60005,0.40003-0.30002,0.60005
		c1.50012,0.80007,3.00026,1.40012,4.60042,1.80016c1.60014,0.40004,3.4003,0.80008,5.00044,0.70006
		C202.62195,81.95185,203.02197,81.15178,202.62195,81.15178z"/>
	<path d="M199.12163,82.85194c-0.20001-0.10001-0.40004-0.10001-0.60007-0.20002c-0.40002-0.10001-0.70006-0.20001-1.1001-0.40003
		c-0.70006-0.20002-1.50014-0.50005-2.30022-0.70007c-0.20001-0.10001-0.60005,0.60006-0.30003,0.70007
		c0.70007,0.30003,1.40013,0.60005,2.2002,0.90008c0.40004,0.10001,0.70007,0.30003,1.10011,0.40004
		c0.40002,0.10001,0.80008,0.30003,1.1001,0.30003c0.20003,0,0.50005-0.50005,0.30003-0.70007
		C199.52165,83.05195,199.32164,82.95194,199.12163,82.85194z"/>
	<path d="M58.60892,64.95032c-4.30039,1.70015-8.80079,2.40022-13.40121,1.90017c-4.20038-0.50005-8.20074-2.00018-11.70106-4.30038
		c-0.90009-0.60005-1.90017-1.30012-2.70025-2.10019c-0.90008-0.80007-1.60015-1.70015-2.50023-2.40022
		c-0.20002-0.20002-0.40004,0.30003-0.40004,0.50005c0.50005,0.90008,1.40013,1.70015,2.2002,2.40022
		c0.70006,0.70006,1.50014,1.30012,2.30021,1.90017c1.70015,1.20011,3.60032,2.30021,5.5005,3.10028
		c4.10037,1.70015,8.60078,2.30021,13.00117,1.90017c2.60023-0.30003,5.20047-0.90009,7.60069-2.00018
		C58.80894,65.65038,59.10897,64.75029,58.60892,64.95032z"/>
	<path d="M39.90723,62.95013c2.40022,1.00009,4.80043,1.50014,7.30066,1.70015c1.20011,0.10001,2.50023,0.10001,3.70034,0
		c1.20011-0.10001,2.60023-0.20001,3.70033-0.70006c0.20002-0.10001,0.50005-0.80007,0.10001-0.80007
		c-0.50005,0-1.1001,0.20002-1.60014,0.30003c-0.60005,0.10001-1.20011,0.20002-1.80016,0.20002
		c-1.30012,0.10001-2.60023,0.20002-3.80034,0.10001c-2.50023-0.10001-5.00045-0.60005-7.30066-1.40013
		C40.00724,62.35008,39.70721,62.85012,39.90723,62.95013z"/>
	<path d="M129.2153,8.04517c4.20038-0.90008,8.50076-1.40013,12.80116-1.60014c2.10019-0.10001,4.30038-0.10001,6.40057,0.10001
		c1.00009,0.10001,2.00017,0.10001,3.10028,0.20002c1.00009,0.10001,2.10019,0.40004,3.20029,0.30003
		c0.20001,0,0.60005-0.60005,0.30003-0.70006c-0.90009-0.40004-2.1002-0.40004-3.1003-0.50005
		c-1.1001-0.10001-2.2002-0.20002-3.30029-0.30003c-2.1002-0.10001-4.3004-0.10001-6.40057,0
		c-4.3004,0.20002-8.60078,0.80007-12.80116,1.90017C129.1153,7.44512,128.81528,8.14518,129.2153,8.04517z"/>
	<path d="M100.31269,16.74596c2.00018-0.90008,4.10037-1.50014,6.20056-2.2002c0.30003-0.10001,0.70006-1.00009,0.20001-0.90008
		c-3.3003,0.70006-6.60059,2.10019-9.60086,3.70033c-3.00027,1.60015-5.90054,3.60033-8.50077,5.80053
		c-1.50014,1.30012-2.90026,2.70024-4.20038,4.20038c-0.20001,0.20002-0.10001,0.80007,0.20002,0.50005l0,0
		c3.10027-3.10028,6.30057-5.90053,10.0009-8.20074C96.41234,18.64613,98.31252,17.64604,100.31269,16.74596z"/>
	<path d="M97.51244,19.94625c0.60005-0.30003,1.1001-0.60005,1.70015-0.80007c0.60006-0.30003,1.30013-0.50004,1.90018-0.90008
		c0.20001-0.10001,0.60005-0.90008,0.10001-0.80007c-0.60005,0.10001-1.2001,0.40004-1.80016,0.70006
		c-0.60005,0.30003-1.2001,0.60005-1.80017,0.90008c-1.2001,0.60005-2.40022,1.30012-3.50031,2.00018
		c-2.30021,1.50014-4.4004,3.20029-6.30058,5.10046c-0.20001,0.20002-0.20001,0.80007,0.10001,0.50005
		c1.90017-1.80016,4.00036-3.40031,6.20055-4.80043C95.21223,21.14636,96.31233,20.5463,97.51244,19.94625z"/>
	<path d="M72.51018,41.14816c1.2001-1.90017,2.50023-3.60032,3.90035-5.30048c0.20002-0.30003,0.10001-0.70006-0.20001-0.40004
		c-5.20047,5.90054-8.8008,13.20119-10.90099,20.80188c-0.60005,2.10019-1.2001,4.30038-1.30012,6.50059
		c0,0.50004,0.50004,0,0.60005-0.20002c0.50005-1.90017,0.70006-3.80034,1.2001-5.60051
		c0.50005-1.90017,1.00009-3.70034,1.70015-5.5005C68.70983,47.74876,70.40999,44.34845,72.51018,41.14816z"/>
	<path d="M72.31017,46.04861c0.20001-0.30003,0-0.70007-0.30003-0.40004c-1.70015,2.00018-3.10027,4.30039-4.10036,6.80062
		c-0.50005,1.20011-0.90009,2.40022-1.2001,3.70033c-0.30003,1.20011-0.70007,2.70024-0.50005,4.00036
		c0,0.40004,0.40003,0,0.50005-0.20002c0.30003-1.20011,0.40003-2.40022,0.60005-3.60032
		c0.30003-1.30012,0.70006-2.50023,1.1001-3.70034C69.4099,50.24899,70.71001,48.04879,72.31017,46.04861z"/>
	<path d="M71.71011,48.44883c0.10001-0.40004-0.20002-0.40004-0.40004-0.10001c-0.80007,1.60014-1.40013,3.20029-1.90018,4.80043
		c-0.50004,1.60014-1.00008,3.3003-1.1001,5.00045c0,0.40004,0.40004,0.10001,0.50005-0.10001
		c0.50005-1.60014,0.70007-3.3003,1.20011-4.90044C70.40999,51.5491,71.01004,50.04897,71.71011,48.44883z"/>
	<path d="M137.81609,149.75798c1.30013-0.20003,2.60023-0.40004,3.90034-0.30003c1.30013,0.10001,2.60023,0.50005,3.90034,1.00009
		c2.50023,1.1001,4.30038,3.00026,5.60051,5.30048c0.10002,0.20001,0.50005-0.20001,0.40004-0.40002l0,0
		c-1.00009-2.60025-3.30031-4.60042-5.70052-5.70052c-2.40021-1.10011-5.5005-1.60014-8.00073-0.50005
		C137.61607,149.25793,137.41603,149.75798,137.81609,149.75798z"/>
	<path d="M140.61633,146.95772c-0.20001,0-0.50005,0.60007-0.20001,0.60007l0,0c0.80008,0.10001,1.70015,0.10001,2.50023,0.30002
		c0.90007,0.20003,1.70015,0.40004,2.50023,0.80008c0.80008,0.30003,1.50014,0.80008,2.2002,1.30013s1.30013,1.2001,2.00018,1.70015
		c0.20001,0.20001,0.50005-0.40004,0.40002-0.60007c-0.40002-0.80006-1.2001-1.40012-1.90016-1.90016
		s-1.50014-1.00009-2.40021-1.40012C144.31667,147.05774,142.31648,146.55769,140.61633,146.95772z"/>
	<path d="M144.11665,145.65761c0,0.10002-0.10001,0.30003,0.10002,0.30003l0,0c0.90007,0.10002,1.80016,0.20001,2.60023,0.70006
		c0.40002,0.20001,0.80008,0.40004,1.10011,0.70006c0.40002,0.30003,0.70006,0.60007,1.00009,0.90009
		c0.10001,0.10001,0.20001-0.10002,0.30002-0.10002c0.10002-0.10001,0.10002-0.20001,0.10002-0.40002
		c-0.40002-0.80008-1.30013-1.50014-2.1002-1.80017c-0.80006-0.40002-1.80016-0.60005-2.70024-0.50005
		C144.31667,145.35759,144.21666,145.5576,144.11665,145.65761z"/>
	<path d="M60.6091,139.15703c-1.1001-0.50005-2.60023-0.60007-3.80034-0.60007c-1.30012-0.10001-2.60023,0-3.90036,0.20001
		c-2.60023,0.40004-5.20047,1.20012-7.40067,2.60025c-0.20002,0.10001-0.40004,0.80008,0,0.60005
		c2.2002-1.2001,4.60041-2.00017,7.10064-2.40021c1.30012-0.20001,2.50023-0.20001,3.80034-0.20001
		c0.60005,0,1.20011,0.10002,1.80016,0.10002c0.70006,0.10001,1.30011,0.20001,2.00018,0.30002
		C60.50909,139.75706,60.90913,139.25702,60.6091,139.15703z"/>
	<path d="M49.30808,138.25693c0.90008-0.30002,1.70015-0.70006,2.60023-1.00008c0.90009-0.20003,1.80016-0.40004,2.80025-0.40004
		c0.90008,0,1.80016,0.10002,2.70024,0.30003c0.90008,0.20001,1.80016,0.60007,2.70024,0.80008
		c0.20002,0.10001,0.50005-0.40004,0.30003-0.60007c-0.70007-0.60005-1.70015-0.90007-2.60023-1.1001
		c-1.00009-0.20003-2.00018-0.30003-3.00027-0.30003c-1.80016,0.10001-3.90035,0.50005-5.40049,1.60014
		C49.20807,137.7569,49.00806,138.35695,49.30808,138.25693z"/>
	<path d="M51.30826,135.95673c1.20011-0.30003,2.50023-0.50005,3.80034-0.50005c0.60005,0,1.20011,0.10001,1.80016,0.20001
		c0.60005,0.10002,1.30012,0.40002,1.90017,0.50005c0.20002,0,0.50005-0.50005,0.30003-0.60007
		c-1.00009-0.80006-2.60023-0.90007-3.80034-0.90007c-1.30012,0-2.70024,0.20001-3.90035,0.70006
		C51.20826,135.45668,51.00824,136.05673,51.30826,135.95673z"/>
	<path d="M203.12199,141.15721c-1.40013-0.10002-2.80026-0.10002-4.20038,0c-2.80026,0.30002-5.60052,1.1001-8.10074,2.40021
		c-0.30003,0.10001-0.40004,0.80008,0,0.60005c2.50021-1.2001,5.20045-1.90016,8.00072-2.10019
		c1.30013-0.10002,2.70024-0.10002,4.00037,0c0.60005,0.10002,1.30011,0.10002,1.90016,0.30003
		c0.70006,0.10001,1.40012,0.30003,2.10019,0.40002c0.20003,0,0.60007-0.50005,0.30003-0.70006
		C206.02225,141.35722,204.42209,141.35722,203.12199,141.15721z"/>
	<path d="M193.62112,141.2572c1.50014-0.80006,3.1003-1.30011,4.80045-1.40012c0.80006,0,1.60014,0,2.40021,0.20001
		c0.80008,0.20001,1.60014,0.50005,2.40021,0.70006c0.30003,0.10002,0.60007-0.60005,0.30003-0.70006
		c-0.70006-0.50005-1.60016-0.70006-2.40021-0.80008c-0.90009-0.20001-1.80017-0.20001-2.70024-0.10001
		c-1.70015,0.10001-3.4003,0.60005-4.90044,1.60014C193.4211,140.85718,193.32109,141.45721,193.62112,141.2572z"/>
	<path d="M194.62122,137.95691c0,0.10001,0,0.30002,0.20001,0.30002l0,0c0.90009-0.30002,1.90018-0.40002,2.90027-0.40002
		c0.50003,0,1.00008,0,1.50012,0.10002c0.40004,0.10001,1.00009,0.30002,1.40013,0.20001c0.20001,0,0.50005-0.50005,0.30002-0.70006
		c-0.30002-0.30003-1.00008-0.30003-1.40012-0.40004c-0.50005-0.10001-1.00009-0.10001-1.50014,0
		c-1.1001,0.10002-2.00018,0.30003-3.00026,0.70007C194.82123,137.65689,194.62122,137.8569,194.62122,137.95691z"/>
	<path d="M146.11684,143.85745l1.00009,0.50005c0.60005,0.30002,1.30013,0.60005,1.90016,0.90007
		c0.30003,0.10002,0.70006-0.50005,0.40004-0.70006l0,0c-0.60007-0.30003-1.30013-0.70006-1.90018-1.00009l-0.90007-0.50005
		l-0.50005-0.20001c-0.20001-0.10002-0.30003-0.20001-0.50005-0.20001s-0.60007,0.50003-0.40002,0.70006
		c0.10001,0.10001,0.30002,0.20001,0.40002,0.30002L146.11684,143.85745z"/>
	<path d="M52.60838,133.4565l1.30012,0.20001c0.90008,0.10002,1.80016,0.30003,2.70024,0.30003
		c0.30003,0,0.60005-0.60007,0.30003-0.70006l0,0c-0.90008-0.20001-1.80016-0.30003-2.70024-0.40002l-1.30012-0.20003
		c-0.50005-0.10001-0.90008-0.20001-1.30012-0.10001c-0.20002,0-0.40004,0.40002-0.20002,0.60005
		C51.7083,133.4565,52.20835,133.4565,52.60838,133.4565z"/>
	<path d="M169.11891,74.15115c-2.80025-3.40031-6.90062-5.5005-11.201-6.30058c-2.50023-0.40004-5.20047-0.50005-7.7007,0.10001
		c-0.20001,0-0.50005,0.60005-0.20001,0.60005l0,0c2.2002-0.10001,4.3004-0.20001,6.40057,0.10001
		c2.2002,0.30003,4.30038,0.90008,6.30057,1.80016c3.80035,1.80016,6.90062,5.00045,8.40076,8.9008
		c0.40002,1.00009,0.70006,2.10019,0.80008,3.20029c0.20001,1.2001,0.10001,2.30022,0.10001,3.50032
		c0,0.50005,0.50005,0,0.60007-0.20002c0.50005-2.00018,0.10001-4.20037-0.50005-6.20055
		C171.51912,77.65146,170.41902,75.75129,169.11891,74.15115z"/>
	<path d="M63.60938,98.35333c-0.80007-0.80007-1.60014-1.70015-2.30021-2.70024c-0.70006-1.00008-1.20011-2.00018-1.70015-3.10027
		c-0.20002-0.50005-0.40004-1.1001-0.60005-1.60014c-0.10001-0.30003-0.20002-0.60005-0.20002-0.80008
		c-0.10001-0.30003-0.20002-0.60005-0.30003-0.80007c-0.10001-0.30003-0.40004,0.10001-0.40004,0.30003l0,0
		c0,2.40022,1.20011,4.90044,2.50023,6.80062c1.30011,1.90017,3.10028,4.10036,5.30048,5.00045
		c0.30003,0.10001,0.60005-0.50005,0.40004-0.70006C65.50954,99.85347,64.50945,99.1534,63.60938,98.35333z"/>
</g>
</svg>
